<?xml version="1.0" encoding="utf-8"?>
<!-- Generator: Adobe Illustrator 19.0.0, SVG Export Plug-In . SVG Version: 6.00 Build 0)  -->
<!DOCTYPE svg PUBLIC "-//W3C//DTD SVG 1.1//EN" "http://www.w3.org/Graphics/SVG/1.1/DTD/svg11.dtd">
<svg version="1.1" id="Layer_1" xmlns="http://www.w3.org/2000/svg" xmlns:xlink="http://www.w3.org/1999/xlink" x="0px" y="0px"
	 viewBox="0 0 261.624 81.062" enable-background="new 0 0 261.624 81.062" xml:space="preserve">
<g>
	<path fill="#D35E13" d="M40.687,81.062h183.05l13.467-28.809H1.723C6.745,68.896,22.305,81.062,40.687,81.062z"/>
	<path fill="#FFFFFF" d="M261.624,0h-10.405H40.687C18.251,0,0,18.252,0,40.688c0,2.361,0.217,4.674,0.611,6.925
		c0.275,1.581,0.654,3.127,1.111,4.642h235.48l2.169-4.642L261.624,0z"/>
</g>
<path fill="#263472" d="M261.624,0l-37.888,81.062H40.687C18.251,81.062,0,62.953,0,40.688C0,18.252,18.251,0,40.687,0h210.532
	H261.624z M219.523,74.441l31.696-67.816H40.687c-18.812,0-34.064,15.248-34.064,34.062c0,18.815,15.252,33.754,34.064,33.754
	H219.523z"/>
<g>
	<path fill="#E13A3E" d="M41.635,12.063c-15.809,0-28.624,12.818-28.624,28.624c0,15.81,12.815,28.627,28.624,28.627
		c15.81,0,28.624-12.817,28.624-28.627C70.259,24.882,57.444,12.063,41.635,12.063z"/>
</g>
<g>
	<path fill="#FFFFFF" d="M52.947,57.248h3.069l0.003-2.453h-4.491l-1.336-2.318h5.824l0.003-2.454h-7.214l1.158-2.008l-2.224-3.853
		l4.449-0.006l1.133-1.96l3.639,6.298l2.125-1.229l-2.957-5.118h2.678l2.286,3.962l2.126-1.23l-1.578-2.731h6.383v-2.891
		l-6.37-0.003l1.536-2.658l-2.127-1.229l-2.243,3.887h-2.676l2.913-5.043l-2.126-1.229l-3.608,6.246l-1.157-2.003l-4.449-0.003
		l2.226-3.855l-1.137-1.966h7.272v-2.453l-5.911-0.003l1.338-2.315h4.573v-2.456h-3.157l3.192-5.529l-2.505-1.445l-3.184,5.518
		l-1.537-2.659l-2.125,1.226l2.246,3.891l-1.338,2.317l-2.914-5.049l-2.125,1.226l3.606,6.251h-2.314l-2.225,3.85l-2.233-3.85
		h-2.267l3.636-6.303l-2.122-1.226l-2.957,5.121l-1.338-2.316l2.287-3.965l-2.124-1.228l-1.578,2.734l-3.192-5.529l-2.507,1.445
		l3.187,5.52h-3.071v2.456h4.489l1.338,2.315h-5.827v2.456h7.214l-1.155,2.003l2.222,3.856l-4.452,0.009l-1.133,1.96l-3.64-6.298
		l-2.125,1.226l2.957,5.118H24.63l-2.283-3.962l-2.129,1.228l1.579,2.734h-6.386v2.896l6.371-0.003l-1.537,2.662l2.129,1.228
		l2.244-3.891h2.673l-2.913,5.047l2.127,1.229l3.608-6.252l1.157,2.012h4.448l-2.22,3.855l1.136,1.965l-7.278-0.003v2.454h5.91
		l-1.338,2.321l-4.572-0.003v2.453h3.156l-3.192,5.529l2.504,1.447l3.188-5.519l1.533,2.661l2.127-1.227l-2.243-3.888l1.335-2.315
		l2.914,5.043l2.125-1.226L37.197,51.5l2.319,0.003l2.223-3.853l2.232,3.853l2.266-0.003l-3.637,6.306l2.124,1.226l2.955-5.121
		l1.338,2.317l-2.287,3.963l2.124,1.226l1.581-2.732l3.19,5.526l2.506-1.445L52.947,57.248z M46.996,49.853l-2.072-0.003
		l-3.188-5.497l-3.174,5.497l-2.12,0.003l-1.036-1.795l3.17-5.512h-6.352l-1.058-1.835l1.036-1.795l6.355-0.012l-3.174-5.497
		l1.057-1.832l2.072-0.003l3.187,5.5l3.176-5.5h2.12l1.038,1.795l-3.178,5.506h1.429l4.926,0.003l1.06,1.835l-1.034,1.795
		l-6.355,0.009l3.172,5.5L46.996,49.853z"/>
	<polygon fill="#FFFFFF" points="50.831,41.332 51.183,40.723 50.821,40.093 42.791,40.093 46.806,33.139 46.448,32.521 
		45.732,32.521 41.719,39.474 37.703,32.521 36.978,32.521 36.623,33.13 40.643,40.093 32.607,40.09 32.245,40.72 32.598,41.332 
		40.644,41.332 36.622,48.304 36.978,48.922 37.695,48.919 41.718,41.951 45.74,48.919 46.448,48.919 46.812,48.295 42.792,41.332 	
		"/>
</g>
<g>
	<g>
		<path fill="#263472" d="M75.831,44.57l4.931-31.104h11.549c5.524,0,8.897,2.148,7.958,8.086c-0.442,2.809-1.713,5.074-4.429,6.352
			l-0.012,0.086c4.362,0.575,5.784,3.586,5.095,7.916c-1.031,6.52-6.938,8.664-12.636,8.664H75.831z M84.898,38.385h1.03
			c2.393,0,6.417,0.121,6.958-3.303c0.596-3.751-3.468-3.381-6.105-3.381h-0.825L84.898,38.385z M86.91,25.675h0.906
			c2.145,0,4.432-0.365,4.85-3.009c0.449-2.848-2.042-3.014-4.224-3.014h-0.58L86.91,25.675z"/>
		<path fill="#263472" d="M136.24,13.466l-2.771,17.492c-0.633,4-1.426,7.96-4.998,10.971c-2.997,2.563-7.229,3.466-10.857,3.466
			c-3.633,0-7.572-0.902-9.767-3.466c-2.614-3.011-2.156-6.971-1.521-10.971l2.771-17.492h8.085l-2.597,16.378
			c-0.636,4.041-1.049,8.458,4.15,8.458c5.196,0,6.185-4.417,6.825-8.458l2.593-16.378H136.24z"/>
		<path fill="#263472" d="M162.872,44.57h-10.066l-5.735-11.961h-0.083l-1.895,11.961h-8.084l4.929-31.104h12.083
			c6.146,0,10.345,2.929,9.293,9.573c-0.678,4.286-3.659,8.001-8.198,8.786L162.872,44.57z M147.814,27.41h0.778
			c2.645,0,5.69-0.497,6.226-3.877c0.536-3.384-2.355-3.881-4.994-3.881h-0.783L147.814,27.41z"/>
		<path fill="#263472" d="M191.5,44.57h-10.065l-5.735-11.961h-0.084L173.72,44.57h-8.087l4.93-31.104h12.085
			c6.145,0,10.344,2.929,9.293,9.573c-0.681,4.286-3.657,8.001-8.195,8.786L191.5,44.57z M176.438,27.41h0.783
			c2.645,0,5.691-0.497,6.226-3.877c0.538-3.384-2.355-3.881-4.994-3.881h-0.787L176.438,27.41z"/>
		<path fill="#263472" d="M202.348,44.57h-8.086l4.929-31.104h8.087L202.348,44.57z"/>
		<path fill="#263472" d="M228.943,21.47c-1.291-1.24-3.059-2.064-5.035-2.064c-1.487,0-3.601,0.867-3.877,2.6
			c-0.288,1.815,1.786,2.515,3.12,2.966l1.962,0.625c4.13,1.274,7.124,3.466,6.325,8.494c-0.485,3.093-1.734,6.274-4.54,8.374
			c-2.762,2.062-6.159,2.93-9.295,2.93c-3.916,0-7.546-1.318-10.368-3.548l4.498-6.516c1.738,1.771,3.902,3.217,6.668,3.217
			c1.895,0,4.067-0.945,4.413-3.136c0.359-2.27-2.69-3.051-4.347-3.551c-4.844-1.439-7.977-2.763-7.023-8.786
			c1.003-6.308,6.15-10.433,12.38-10.433c3.135,0,6.815,0.987,9.331,2.557L228.943,21.47z"/>
	</g>
</g>
<g>
	<path fill="#FFFFFF" d="M74.265,61.261l-0.24,1.511h2.579l-0.317,1.991h-2.579l-0.564,3.55h-2.351l1.438-9.043h5.193l-0.317,1.991
		H74.265z"/>
	<path fill="#FFFFFF" d="M84.817,68.313H81.89l-1.666-3.478h-0.024l-0.553,3.478h-2.351l1.438-9.043h3.514
		c1.787,0,3.007,0.852,2.7,2.782c-0.198,1.248-1.065,2.327-2.385,2.555L84.817,68.313z M80.441,63.324h0.228
		c0.768,0,1.654-0.144,1.811-1.127c0.156-0.983-0.685-1.128-1.452-1.128H80.8L80.441,63.324z"/>
	<path fill="#FFFFFF" d="M88.929,61.261l-0.24,1.511h2.65l-0.316,1.991h-2.651l-0.248,1.56h2.794l-0.317,1.99h-5.145l1.438-9.043
		h5.146l-0.317,1.991H88.929z"/>
	<path fill="#FFFFFF" d="M94.407,68.313h-2.351l1.438-9.043h2.351L94.407,68.313z"/>
	<path fill="#FFFFFF" d="M105.767,63.264c-0.234,1.319-0.509,2.446-1.492,3.574c-1.084,1.235-2.501,1.774-4.012,1.774
		c-2.842,0-4.514-1.931-4.062-4.773c0.467-2.938,2.765-4.869,5.68-4.869c1.859,0,3.165,0.84,3.675,2.531l-2.38,0.935
		c-0.187-0.863-0.778-1.438-1.726-1.438c-1.547,0-2.585,1.475-2.805,2.854c-0.223,1.403,0.39,2.83,1.937,2.83
		c1.019,0,1.883-0.527,2.145-1.571h-1.919l0.294-1.847H105.767z"/>
	<path fill="#FFFFFF" d="M112.676,62.76l0.555-3.49h2.351l-1.438,9.043h-2.351l0.589-3.706h-3.394l-0.589,3.706h-2.351l1.438-9.043
		h2.351l-0.555,3.49H112.676z"/>
	<path fill="#FFFFFF" d="M119.283,68.313h-2.351l1.122-7.052h-1.943l0.317-1.991h6.236l-0.316,1.991h-1.943L119.283,68.313z"/>
	<path fill="#FFFFFF" d="M128.63,59.27h2.314l1.066,4.834l2.712-4.834h2.339l-0.071,9.043h-2.351l0.168-5.205h-0.023l-2.999,5.205
		h-0.936l-1.247-5.205h-0.023l-1.584,5.205h-2.338L128.63,59.27z"/>
	<path fill="#FFFFFF" d="M140.545,66.742l-0.874,1.571h-2.494l4.916-9.043h2.566l1.968,9.043h-2.506l-0.338-1.571H140.545z
		 M142.932,62.065h-0.023l-1.43,2.878h1.955L142.932,62.065z"/>
	<path fill="#FFFFFF" d="M148.803,59.27h2.351l3.426,5.529h0.024l0.879-5.529h2.351l-1.438,9.043h-2.351l-3.425-5.541h-0.024
		l-0.881,5.541h-2.351L148.803,59.27z"/>
	<path fill="#FFFFFF" d="M160.488,66.742l-0.874,1.571h-2.494l4.916-9.043h2.566l1.968,9.043h-2.506l-0.338-1.571H160.488z
		 M162.875,62.065h-0.023l-1.43,2.878h1.955L162.875,62.065z"/>
	<path fill="#FFFFFF" d="M177.13,63.264c-0.234,1.319-0.509,2.446-1.492,3.574c-1.084,1.235-2.501,1.774-4.012,1.774
		c-2.843,0-4.515-1.931-4.062-4.773c0.467-2.938,2.765-4.869,5.68-4.869c1.858,0,3.164,0.84,3.675,2.531l-2.379,0.935
		c-0.187-0.863-0.779-1.438-1.727-1.438c-1.547,0-2.585,1.475-2.805,2.854c-0.223,1.403,0.39,2.83,1.937,2.83
		c1.02,0,1.883-0.527,2.146-1.571h-1.919l0.293-1.847H177.13z"/>
	<path fill="#FFFFFF" d="M180.885,61.261l-0.241,1.511h2.651l-0.317,1.991h-2.65l-0.248,1.56h2.795l-0.316,1.99h-5.146l1.438-9.043
		h5.145l-0.316,1.991H180.885z"/>
	<path fill="#FFFFFF" d="M186.445,59.27h2.314l1.066,4.834l2.712-4.834h2.339l-0.071,9.043h-2.351l0.168-5.205H192.6l-2.999,5.205
		h-0.936l-1.247-5.205h-0.023l-1.584,5.205h-2.339L186.445,59.27z"/>
	<path fill="#FFFFFF" d="M199.28,61.261l-0.241,1.511h2.651l-0.317,1.991h-2.65l-0.248,1.56h2.795l-0.316,1.99h-5.146l1.438-9.043
		h5.145l-0.316,1.991H199.28z"/>
	<path fill="#FFFFFF" d="M203.846,59.27h2.351l3.426,5.529h0.024l0.879-5.529h2.351l-1.438,9.043h-2.351l-3.425-5.541h-0.024
		l-0.881,5.541h-2.351L203.846,59.27z"/>
	<path fill="#FFFFFF" d="M216.577,68.313h-2.351l1.122-7.052h-1.943l0.316-1.991h6.237l-0.317,1.991h-1.942L216.577,68.313z"/>
</g>
</svg>
