<?xml version="1.0" encoding="utf-8"?>
<!-- Generator: Adobe Illustrator 19.0.0, SVG Export Plug-In . SVG Version: 6.00 Build 0)  -->
<!DOCTYPE svg PUBLIC "-//W3C//DTD SVG 1.1//EN" "http://www.w3.org/Graphics/SVG/1.1/DTD/svg11.dtd">
<svg version="1.1" id="Layer_1" xmlns="http://www.w3.org/2000/svg" xmlns:xlink="http://www.w3.org/1999/xlink" x="0px" y="0px"
	 viewBox="0 0 52.612 47.022" enable-background="new 0 0 52.612 47.022" xml:space="preserve">
<g>
	<path fill="#FFFFFF" d="M37.536,40.049h3.069l0.003-2.453h-4.491l-1.336-2.318h5.824l0.003-2.454h-7.214l1.158-2.008l-2.224-3.853
		l4.449-0.006l1.133-1.96l3.639,6.298l2.125-1.229l-2.957-5.118h2.678l2.286,3.962l2.126-1.23l-1.578-2.732h6.383v-2.891
		l-6.37-0.003l1.536-2.658l-2.127-1.229l-2.243,3.887h-2.676l2.913-5.043l-2.126-1.229l-3.608,6.246l-1.157-2.003l-4.449-0.003
		l2.227-3.855l-1.137-1.966h7.272v-2.453l-5.911-0.003l1.338-2.316h4.573V6.975H37.51l3.192-5.529L38.197,0l-3.185,5.518
		l-1.537-2.659l-2.125,1.226l2.246,3.891l-1.338,2.317l-2.914-5.049L27.22,6.469l3.606,6.251h-2.314l-2.225,3.85l-2.233-3.85h-2.267
		l3.636-6.303l-2.122-1.226l-2.957,5.121l-1.338-2.316l2.287-3.965l-2.124-1.229l-1.578,2.734l-3.192-5.529l-2.507,1.445
		l3.186,5.521h-3.071v2.456h4.489l1.338,2.316h-5.827v2.456h7.214l-1.155,2.003l2.222,3.856l-4.452,0.009l-1.133,1.96l-3.64-6.298
		l-2.125,1.226l2.957,5.118H9.219l-2.283-3.962l-2.129,1.228l1.579,2.734H0v2.896l6.371-0.003L4.834,27.63l2.129,1.228l2.244-3.891
		h2.673l-2.913,5.047l2.127,1.229l3.608-6.252l1.157,2.012h4.448l-2.22,3.855l1.136,1.965l-7.278-0.003v2.454h5.91l-1.338,2.321
		l-4.572-0.003v2.453h3.156l-3.192,5.529l2.504,1.447l3.188-5.52l1.533,2.661l2.127-1.227l-2.243-3.888l1.335-2.314l2.914,5.043
		l2.125-1.226l-3.606-6.251l2.319,0.003l2.223-3.853l2.232,3.853l2.266-0.003l-3.637,6.306l2.124,1.226l2.955-5.121l1.338,2.317
		l-2.287,3.963l2.124,1.226l1.581-2.731l3.19,5.526l2.506-1.445L37.536,40.049z M31.585,32.653l-2.072-0.003l-3.188-5.497
		l-3.174,5.497l-2.12,0.003l-1.036-1.795l3.17-5.512h-6.352l-1.058-1.835l1.036-1.795l6.355-0.012l-3.174-5.497l1.057-1.832
		l2.072-0.003l3.187,5.5l3.176-5.5h2.12l1.038,1.795l-3.178,5.506h1.429l4.926,0.003l1.06,1.835l-1.034,1.795l-6.354,0.009
		l3.172,5.5L31.585,32.653z"/>
	<polygon fill="#FFFFFF" points="35.42,24.133 35.771,23.523 35.41,22.894 27.38,22.894 31.394,15.939 31.037,15.321 30.32,15.321 
		26.308,22.274 22.292,15.321 21.566,15.321 21.212,15.931 25.231,22.894 17.195,22.891 16.834,23.521 17.186,24.133 25.232,24.133 
		21.211,31.105 21.566,31.723 22.284,31.72 26.307,24.752 30.329,31.72 31.037,31.72 31.4,31.096 27.381,24.133 	"/>
</g>
</svg>
